<svg width="400" height="400" viewBox="0 0 400 400" fill="none" xmlns="http://www.w3.org/2000/svg">
<rect width="400" height="400" fill="white"/>
<path d="M67.7109 179V131.422H50.7188V121.734H96.2266V131.422H79.2734V179H67.7109ZM114.586 121.734V142.789C118.128 138.648 122.359 136.578 127.281 136.578C129.807 136.578 132.086 137.047 134.117 137.984C136.148 138.922 137.672 140.12 138.688 141.578C139.729 143.036 140.432 144.651 140.797 146.422C141.188 148.193 141.383 150.94 141.383 154.664V179H130.406V157.086C130.406 152.737 130.198 149.977 129.781 148.805C129.365 147.633 128.622 146.708 127.555 146.031C126.513 145.328 125.198 144.977 123.609 144.977C121.786 144.977 120.159 145.419 118.727 146.305C117.294 147.19 116.24 148.531 115.562 150.328C114.911 152.099 114.586 154.729 114.586 158.219V179H103.609V121.734H114.586ZM176.578 165.797L187.516 167.633C186.109 171.643 183.883 174.703 180.836 176.812C177.815 178.896 174.026 179.938 169.469 179.938C162.255 179.938 156.917 177.581 153.453 172.867C150.719 169.091 149.352 164.326 149.352 158.57C149.352 151.695 151.148 146.318 154.742 142.438C158.336 138.531 162.88 136.578 168.375 136.578C174.547 136.578 179.417 138.622 182.984 142.711C186.552 146.773 188.258 153.01 188.102 161.422H160.602C160.68 164.677 161.565 167.216 163.258 169.039C164.951 170.836 167.06 171.734 169.586 171.734C171.305 171.734 172.75 171.266 173.922 170.328C175.094 169.391 175.979 167.88 176.578 165.797ZM177.203 154.703C177.125 151.526 176.305 149.117 174.742 147.477C173.18 145.81 171.279 144.977 169.039 144.977C166.643 144.977 164.664 145.849 163.102 147.594C161.539 149.339 160.771 151.708 160.797 154.703H177.203ZM62.9453 271L49.2734 213.734H61.1094L69.7422 253.07L80.2109 213.734H93.9609L104 253.734L112.789 213.734H124.43L110.523 271H98.2578L86.8516 228.188L75.4844 271H62.9453ZM152.828 257.797L163.766 259.633C162.359 263.643 160.133 266.703 157.086 268.812C154.065 270.896 150.276 271.938 145.719 271.938C138.505 271.938 133.167 269.581 129.703 264.867C126.969 261.091 125.602 256.326 125.602 250.57C125.602 243.695 127.398 238.318 130.992 234.438C134.586 230.531 139.13 228.578 144.625 228.578C150.797 228.578 155.667 230.622 159.234 234.711C162.802 238.773 164.508 245.01 164.352 253.422H136.852C136.93 256.677 137.815 259.216 139.508 261.039C141.201 262.836 143.31 263.734 145.836 263.734C147.555 263.734 149 263.266 150.172 262.328C151.344 261.391 152.229 259.88 152.828 257.797ZM153.453 246.703C153.375 243.526 152.555 241.117 150.992 239.477C149.43 237.81 147.529 236.977 145.289 236.977C142.893 236.977 140.914 237.849 139.352 239.594C137.789 241.339 137.021 243.708 137.047 246.703H153.453ZM181.539 242.172L171.578 240.375C172.698 236.365 174.625 233.396 177.359 231.469C180.094 229.542 184.156 228.578 189.547 228.578C194.443 228.578 198.089 229.164 200.484 230.336C202.88 231.482 204.56 232.953 205.523 234.75C206.513 236.521 207.008 239.789 207.008 244.555L206.891 257.367C206.891 261.013 207.06 263.708 207.398 265.453C207.763 267.172 208.427 269.021 209.391 271H198.531C198.245 270.271 197.893 269.19 197.477 267.758C197.294 267.107 197.164 266.677 197.086 266.469C195.211 268.292 193.206 269.659 191.07 270.57C188.935 271.482 186.656 271.938 184.234 271.938C179.964 271.938 176.591 270.779 174.117 268.461C171.669 266.143 170.445 263.214 170.445 259.672C170.445 257.328 171.005 255.245 172.125 253.422C173.245 251.573 174.807 250.167 176.812 249.203C178.844 248.214 181.76 247.354 185.562 246.625C190.693 245.661 194.247 244.763 196.227 243.93V242.836C196.227 240.727 195.706 239.229 194.664 238.344C193.622 237.432 191.656 236.977 188.766 236.977C186.812 236.977 185.289 237.367 184.195 238.148C183.102 238.904 182.216 240.245 181.539 242.172ZM196.227 251.078C194.82 251.547 192.594 252.107 189.547 252.758C186.5 253.409 184.508 254.047 183.57 254.672C182.138 255.688 181.422 256.977 181.422 258.539C181.422 260.076 181.995 261.404 183.141 262.523C184.286 263.643 185.745 264.203 187.516 264.203C189.495 264.203 191.383 263.552 193.18 262.25C194.508 261.26 195.38 260.049 195.797 258.617C196.083 257.68 196.227 255.896 196.227 253.266V251.078ZM236.891 229.516V238.266H229.391V254.984C229.391 258.37 229.456 260.349 229.586 260.922C229.742 261.469 230.068 261.924 230.562 262.289C231.083 262.654 231.708 262.836 232.438 262.836C233.453 262.836 234.924 262.484 236.852 261.781L237.789 270.297C235.237 271.391 232.346 271.938 229.117 271.938C227.138 271.938 225.354 271.612 223.766 270.961C222.177 270.284 221.005 269.424 220.25 268.383C219.521 267.315 219.013 265.883 218.727 264.086C218.492 262.81 218.375 260.232 218.375 256.352V238.266H213.336V229.516H218.375V221.273L229.391 214.867V229.516H236.891ZM255.445 213.734V234.789C258.987 230.648 263.219 228.578 268.141 228.578C270.667 228.578 272.945 229.047 274.977 229.984C277.008 230.922 278.531 232.12 279.547 233.578C280.589 235.036 281.292 236.651 281.656 238.422C282.047 240.193 282.242 242.94 282.242 246.664V271H271.266V249.086C271.266 244.737 271.057 241.977 270.641 240.805C270.224 239.633 269.482 238.708 268.414 238.031C267.372 237.328 266.057 236.977 264.469 236.977C262.646 236.977 261.018 237.419 259.586 238.305C258.154 239.19 257.099 240.531 256.422 242.328C255.771 244.099 255.445 246.729 255.445 250.219V271H244.469V213.734H255.445ZM317.438 257.797L328.375 259.633C326.969 263.643 324.742 266.703 321.695 268.812C318.674 270.896 314.885 271.938 310.328 271.938C303.115 271.938 297.776 269.581 294.312 264.867C291.578 261.091 290.211 256.326 290.211 250.57C290.211 243.695 292.008 238.318 295.602 234.438C299.195 230.531 303.74 228.578 309.234 228.578C315.406 228.578 320.276 230.622 323.844 234.711C327.411 238.773 329.117 245.01 328.961 253.422H301.461C301.539 256.677 302.424 259.216 304.117 261.039C305.81 262.836 307.919 263.734 310.445 263.734C312.164 263.734 313.609 263.266 314.781 262.328C315.953 261.391 316.839 259.88 317.438 257.797ZM318.062 246.703C317.984 243.526 317.164 241.117 315.602 239.477C314.039 237.81 312.138 236.977 309.898 236.977C307.503 236.977 305.523 237.849 303.961 239.594C302.398 241.339 301.63 243.708 301.656 246.703H318.062ZM348.453 271H337.477V229.516H347.672V235.414C349.417 232.628 350.979 230.792 352.359 229.906C353.766 229.021 355.354 228.578 357.125 228.578C359.625 228.578 362.034 229.268 364.352 230.648L360.953 240.219C359.104 239.021 357.385 238.422 355.797 238.422C354.26 238.422 352.958 238.852 351.891 239.711C350.823 240.544 349.977 242.068 349.352 244.281C348.753 246.495 348.453 251.13 348.453 258.188V271ZM106.461 363H93.8828L88.8828 349.992H65.9922L61.2656 363H49L71.3047 305.734H83.5312L106.461 363ZM85.1719 340.344L77.2812 319.094L69.5469 340.344H85.1719ZM112.242 321.516H122.477V327.609C123.805 325.526 125.602 323.833 127.867 322.531C130.133 321.229 132.646 320.578 135.406 320.578C140.224 320.578 144.312 322.466 147.672 326.242C151.031 330.018 152.711 335.279 152.711 342.023C152.711 348.951 151.018 354.341 147.633 358.195C144.247 362.023 140.146 363.938 135.328 363.938C133.036 363.938 130.953 363.482 129.078 362.57C127.229 361.659 125.276 360.096 123.219 357.883V378.781H112.242V321.516ZM123.102 341.555C123.102 346.216 124.026 349.667 125.875 351.906C127.724 354.12 129.977 355.227 132.633 355.227C135.185 355.227 137.307 354.211 139 352.18C140.693 350.122 141.539 346.763 141.539 342.102C141.539 337.753 140.667 334.523 138.922 332.414C137.177 330.305 135.016 329.25 132.438 329.25C129.755 329.25 127.529 330.292 125.758 332.375C123.987 334.432 123.102 337.492 123.102 341.555ZM161.148 321.516H171.383V327.609C172.711 325.526 174.508 323.833 176.773 322.531C179.039 321.229 181.552 320.578 184.312 320.578C189.13 320.578 193.219 322.466 196.578 326.242C199.938 330.018 201.617 335.279 201.617 342.023C201.617 348.951 199.924 354.341 196.539 358.195C193.154 362.023 189.052 363.938 184.234 363.938C181.943 363.938 179.859 363.482 177.984 362.57C176.135 361.659 174.182 360.096 172.125 357.883V378.781H161.148V321.516ZM172.008 341.555C172.008 346.216 172.932 349.667 174.781 351.906C176.63 354.12 178.883 355.227 181.539 355.227C184.091 355.227 186.214 354.211 187.906 352.18C189.599 350.122 190.445 346.763 190.445 342.102C190.445 337.753 189.573 334.523 187.828 332.414C186.083 330.305 183.922 329.25 181.344 329.25C178.661 329.25 176.435 330.292 174.664 332.375C172.893 334.432 172.008 337.492 172.008 341.555Z" fill="#225A86"/>
</svg>
